<mxfile host="www.draw.io" modified="2020-01-31T13:45:31.957Z" agent="Mozilla/5.0 (Windows NT 6.2; Win64; x64) AppleWebKit/537.36 (KHTML, like Gecko) Chrome/79.0.3945.130 Safari/537.36" etag="2tWV6BH2_cQ2gN0FmCrx" version="12.6.2" type="github">
  <diagram name="Page-1" id="13e1069c-82ec-6db2-03f1-153e76fe0fe0">
    <mxGraphModel dx="773" dy="378" grid="1" gridSize="10" guides="1" tooltips="1" connect="1" arrows="1" fold="1" page="1" pageScale="1" pageWidth="1100" pageHeight="850" background="#ffffff" math="0" shadow="0">
      <root>
        <mxCell id="0"/>
        <mxCell id="1" parent="0"/>
        <mxCell id="7baba1c4bc27f4b0-2" value=":imService" style="shape=umlLifeline;perimeter=lifelinePerimeter;whiteSpace=wrap;html=1;container=1;collapsible=0;recursiveResize=0;outlineConnect=0;rounded=1;shadow=0;comic=0;labelBackgroundColor=none;strokeWidth=1;fontFamily=Verdana;fontSize=12;align=center;fillColor=#ffe6cc;strokeColor=#d79b00;" parent="1" vertex="1">
          <mxGeometry x="240" y="80" width="100" height="510" as="geometry"/>
        </mxCell>
        <mxCell id="SCf--bu4-dqeZi4qSqdn-6" value="" style="html=1;points=[];perimeter=orthogonalPerimeter;rounded=0;shadow=0;comic=0;labelBackgroundColor=none;strokeWidth=1;fontFamily=Verdana;fontSize=12;align=center;fillColor=#dae8fc;strokeColor=#6c8ebf;" parent="7baba1c4bc27f4b0-2" vertex="1">
          <mxGeometry x="45" y="80" width="10" height="160" as="geometry"/>
        </mxCell>
        <mxCell id="7baba1c4bc27f4b0-3" value=":goim" style="shape=umlLifeline;perimeter=lifelinePerimeter;whiteSpace=wrap;html=1;container=1;collapsible=0;recursiveResize=0;outlineConnect=0;rounded=1;shadow=0;comic=0;labelBackgroundColor=none;strokeWidth=1;fontFamily=Verdana;fontSize=12;align=center;fillColor=#ffe6cc;strokeColor=#d79b00;" parent="1" vertex="1">
          <mxGeometry x="400" y="80" width="100" height="510" as="geometry"/>
        </mxCell>
        <mxCell id="7baba1c4bc27f4b0-13" value="" style="html=1;points=[];perimeter=orthogonalPerimeter;rounded=0;shadow=0;comic=0;labelBackgroundColor=none;strokeWidth=1;fontFamily=Verdana;fontSize=12;align=center;fillColor=#dae8fc;strokeColor=#6c8ebf;" parent="7baba1c4bc27f4b0-3" vertex="1">
          <mxGeometry x="45" y="200" width="10" height="75" as="geometry"/>
        </mxCell>
        <mxCell id="SCf--bu4-dqeZi4qSqdn-33" value="" style="html=1;points=[];perimeter=orthogonalPerimeter;rounded=0;shadow=0;comic=0;labelBackgroundColor=none;strokeWidth=1;fontFamily=Verdana;fontSize=12;align=center;fillColor=#dae8fc;strokeColor=#6c8ebf;" parent="7baba1c4bc27f4b0-3" vertex="1">
          <mxGeometry x="45" y="55" width="10" height="35" as="geometry"/>
        </mxCell>
        <mxCell id="7baba1c4bc27f4b0-4" value=":redis" style="shape=umlLifeline;perimeter=lifelinePerimeter;whiteSpace=wrap;html=1;container=1;collapsible=0;recursiveResize=0;outlineConnect=0;rounded=1;shadow=0;comic=0;labelBackgroundColor=none;strokeWidth=1;fontFamily=Verdana;fontSize=12;align=center;fillColor=#ffe6cc;strokeColor=#d79b00;" parent="1" vertex="1">
          <mxGeometry x="540" y="80" width="100" height="510" as="geometry"/>
        </mxCell>
        <mxCell id="7baba1c4bc27f4b0-16" value="" style="html=1;points=[];perimeter=orthogonalPerimeter;rounded=0;shadow=0;comic=0;labelBackgroundColor=none;strokeWidth=1;fontFamily=Verdana;fontSize=12;align=center;fillColor=#dae8fc;strokeColor=#6c8ebf;" parent="7baba1c4bc27f4b0-4" vertex="1">
          <mxGeometry x="45" y="60" width="10" height="99" as="geometry"/>
        </mxCell>
        <mxCell id="7baba1c4bc27f4b0-5" value=":mysql" style="shape=umlLifeline;perimeter=lifelinePerimeter;whiteSpace=wrap;html=1;container=1;collapsible=0;recursiveResize=0;outlineConnect=0;rounded=1;shadow=0;comic=0;labelBackgroundColor=none;strokeWidth=1;fontFamily=Verdana;fontSize=12;align=center;fillColor=#ffe6cc;strokeColor=#d79b00;" parent="1" vertex="1">
          <mxGeometry x="680" y="80" width="100" height="500" as="geometry"/>
        </mxCell>
        <mxCell id="7baba1c4bc27f4b0-8" value=":APP" style="shape=umlLifeline;perimeter=lifelinePerimeter;whiteSpace=wrap;html=1;container=1;collapsible=0;recursiveResize=0;outlineConnect=0;rounded=1;shadow=0;comic=0;labelBackgroundColor=none;strokeWidth=1;fontFamily=Verdana;fontSize=12;align=center;fillColor=#ffe6cc;strokeColor=#d79b00;" parent="1" vertex="1">
          <mxGeometry x="100" y="80" width="100" height="500" as="geometry"/>
        </mxCell>
        <mxCell id="7baba1c4bc27f4b0-9" value="" style="html=1;points=[];perimeter=orthogonalPerimeter;rounded=0;shadow=0;comic=0;labelBackgroundColor=none;strokeWidth=1;fontFamily=Verdana;fontSize=12;align=center;fillColor=#dae8fc;strokeColor=#6c8ebf;" parent="7baba1c4bc27f4b0-8" vertex="1">
          <mxGeometry x="45" y="60" width="10" height="440" as="geometry"/>
        </mxCell>
        <mxCell id="7baba1c4bc27f4b0-19" value="" style="html=1;points=[];perimeter=orthogonalPerimeter;rounded=0;shadow=0;comic=0;labelBackgroundColor=none;strokeWidth=1;fontFamily=Verdana;fontSize=12;align=center;fillColor=#dae8fc;strokeColor=#6c8ebf;" parent="1" vertex="1">
          <mxGeometry x="725" y="230" width="10" height="90" as="geometry"/>
        </mxCell>
        <mxCell id="ZvRYTC18ovLtI7Ebb16t-18" value="9.根据发送者uid 把消息加入不同会话" style="html=1;verticalAlign=bottom;endArrow=block;labelBackgroundColor=none;fontFamily=Verdana;fontSize=12;elbow=vertical;edgeStyle=orthogonalEdgeStyle;curved=1;entryX=1;entryY=0.286;entryPerimeter=0;exitX=1.038;exitY=0.345;exitPerimeter=0;" parent="1" edge="1">
          <mxGeometry relative="1" as="geometry">
            <mxPoint x="152" y="360" as="sourcePoint"/>
            <mxPoint x="157" y="398" as="targetPoint"/>
            <Array as="points">
              <mxPoint x="207" y="360"/>
              <mxPoint x="207" y="398"/>
            </Array>
          </mxGeometry>
        </mxCell>
        <mxCell id="ZvRYTC18ovLtI7Ebb16t-20" value="" style="html=1;points=[];perimeter=orthogonalPerimeter;rounded=0;shadow=0;comic=0;labelBackgroundColor=none;strokeWidth=1;fontFamily=Verdana;fontSize=12;align=center;fillColor=#dae8fc;strokeColor=#6c8ebf;" parent="1" vertex="1">
          <mxGeometry x="152" y="371" width="10" height="70" as="geometry"/>
        </mxCell>
        <mxCell id="SCf--bu4-dqeZi4qSqdn-8" value="" style="endArrow=classic;html=1;entryX=0.133;entryY=0.182;entryDx=0;entryDy=0;entryPerimeter=0;" parent="1" edge="1" target="7baba1c4bc27f4b0-13">
          <mxGeometry width="50" height="50" relative="1" as="geometry">
            <mxPoint x="290" y="294" as="sourcePoint"/>
            <mxPoint x="440" y="295" as="targetPoint"/>
          </mxGeometry>
        </mxCell>
        <mxCell id="SCf--bu4-dqeZi4qSqdn-10" value="7. 调用单播接口下发消息" style="text;html=1;strokeColor=none;fillColor=none;align=center;verticalAlign=middle;whiteSpace=wrap;rounded=0;" parent="1" vertex="1">
          <mxGeometry x="297" y="268" width="153" height="20" as="geometry"/>
        </mxCell>
        <mxCell id="SCf--bu4-dqeZi4qSqdn-20" value="" style="endArrow=classic;html=1;" parent="1" edge="1" target="7baba1c4bc27f4b0-5">
          <mxGeometry width="50" height="50" relative="1" as="geometry">
            <mxPoint x="292" y="260" as="sourcePoint"/>
            <mxPoint x="714" y="260" as="targetPoint"/>
          </mxGeometry>
        </mxCell>
        <mxCell id="SCf--bu4-dqeZi4qSqdn-21" value="8. 下发消息(pb协议)" style="text;html=1;strokeColor=none;fillColor=none;align=center;verticalAlign=middle;whiteSpace=wrap;rounded=0;" parent="1" vertex="1">
          <mxGeometry x="320" y="310" width="110" height="20" as="geometry"/>
        </mxCell>
        <mxCell id="SCf--bu4-dqeZi4qSqdn-23" value="1.用户上线，建立tcp连接" style="text;html=1;strokeColor=none;fillColor=none;align=center;verticalAlign=middle;whiteSpace=wrap;rounded=0;" parent="1" vertex="1">
          <mxGeometry x="172" y="121" width="168" height="20" as="geometry"/>
        </mxCell>
        <mxCell id="SCf--bu4-dqeZi4qSqdn-24" value="" style="endArrow=classic;html=1;entryX=0.067;entryY=0.362;entryDx=0;entryDy=0;entryPerimeter=0;exitX=1.2;exitY=0.016;exitDx=0;exitDy=0;exitPerimeter=0;" parent="1" edge="1" target="SCf--bu4-dqeZi4qSqdn-33" source="7baba1c4bc27f4b0-9">
          <mxGeometry width="50" height="50" relative="1" as="geometry">
            <mxPoint x="150" y="146" as="sourcePoint"/>
            <mxPoint x="440" y="146" as="targetPoint"/>
          </mxGeometry>
        </mxCell>
        <mxCell id="SCf--bu4-dqeZi4qSqdn-25" value="" style="endArrow=classic;html=1;entryX=0.067;entryY=0.172;entryDx=0;entryDy=0;entryPerimeter=0;" parent="1" target="7baba1c4bc27f4b0-16" edge="1" source="SCf--bu4-dqeZi4qSqdn-33">
          <mxGeometry width="50" height="50" relative="1" as="geometry">
            <mxPoint x="460" y="156" as="sourcePoint"/>
            <mxPoint x="580" y="156" as="targetPoint"/>
            <Array as="points">
              <mxPoint x="510" y="156"/>
            </Array>
          </mxGeometry>
        </mxCell>
        <mxCell id="SCf--bu4-dqeZi4qSqdn-26" value="2.发布上线消息到redis" style="text;html=1;strokeColor=none;fillColor=none;align=center;verticalAlign=middle;whiteSpace=wrap;rounded=0;" parent="1" vertex="1">
          <mxGeometry x="470" y="131" width="120" height="20" as="geometry"/>
        </mxCell>
        <mxCell id="SCf--bu4-dqeZi4qSqdn-27" value="" style="endArrow=classic;html=1;" parent="1" edge="1">
          <mxGeometry width="50" height="50" relative="1" as="geometry">
            <mxPoint x="296" y="232" as="sourcePoint"/>
            <mxPoint x="584" y="231" as="targetPoint"/>
          </mxGeometry>
        </mxCell>
        <mxCell id="SCf--bu4-dqeZi4qSqdn-30" value="4. 用户上线通知" style="text;html=1;strokeColor=none;fillColor=none;align=center;verticalAlign=middle;whiteSpace=wrap;rounded=0;" parent="1" vertex="1">
          <mxGeometry x="390" y="180" width="110" height="20" as="geometry"/>
        </mxCell>
        <mxCell id="SCf--bu4-dqeZi4qSqdn-35" value="" style="endArrow=classic;html=1;" parent="1" edge="1">
          <mxGeometry width="50" height="50" relative="1" as="geometry">
            <mxPoint x="583" y="204" as="sourcePoint"/>
            <mxPoint x="289.5" y="204" as="targetPoint"/>
          </mxGeometry>
        </mxCell>
        <mxCell id="RCsnb_gnlq1DFu9hrXaE-1" value="" style="endArrow=classic;html=1;" edge="1" parent="1" source="7baba1c4bc27f4b0-2">
          <mxGeometry width="50" height="50" relative="1" as="geometry">
            <mxPoint x="465" y="178" as="sourcePoint"/>
            <mxPoint x="590" y="178" as="targetPoint"/>
            <Array as="points">
              <mxPoint x="520" y="178"/>
            </Array>
          </mxGeometry>
        </mxCell>
        <mxCell id="RCsnb_gnlq1DFu9hrXaE-2" value="3.订阅用户上下线事件" style="text;html=1;strokeColor=none;fillColor=none;align=center;verticalAlign=middle;whiteSpace=wrap;rounded=0;" vertex="1" parent="1">
          <mxGeometry x="320" y="155" width="121" height="20" as="geometry"/>
        </mxCell>
        <mxCell id="RCsnb_gnlq1DFu9hrXaE-4" value="5. 获取最大已读消息id" style="text;html=1;strokeColor=none;fillColor=none;align=center;verticalAlign=middle;whiteSpace=wrap;rounded=0;" vertex="1" parent="1">
          <mxGeometry x="390" y="210" width="130" height="20" as="geometry"/>
        </mxCell>
        <mxCell id="RCsnb_gnlq1DFu9hrXaE-5" value="6. 读取用户收信箱离线消息" style="text;html=1;strokeColor=none;fillColor=none;align=center;verticalAlign=middle;whiteSpace=wrap;rounded=0;" vertex="1" parent="1">
          <mxGeometry x="380" y="240" width="170" height="20" as="geometry"/>
        </mxCell>
        <mxCell id="RCsnb_gnlq1DFu9hrXaE-6" value="" style="endArrow=classic;html=1;" edge="1" parent="1">
          <mxGeometry width="50" height="50" relative="1" as="geometry">
            <mxPoint x="446" y="334.5" as="sourcePoint"/>
            <mxPoint x="152.5" y="334.5" as="targetPoint"/>
          </mxGeometry>
        </mxCell>
      </root>
    </mxGraphModel>
  </diagram>
</mxfile>
